<svg width="41" height="41" viewBox="0 0 41 41" fill="none" xmlns="http://www.w3.org/2000/svg">
<g clip-path="url(#clip0_1188_5089)">
<g clip-path="url(#clip1_1188_5089)">
<g clip-path="url(#clip2_1188_5089)">
<path d="M20.5022 5.74822C11.8984 -1.77696 0.958952 4.83488 0.779568 13.7983C0.733855 16.0826 1.39327 18.3078 2.70584 20.3592H11.2136L12.7268 17.837C13.1662 17.1047 14.2296 17.0812 14.6939 17.8112L17.8866 22.8283L22.5407 13.0034C22.9465 12.1461 24.1561 12.1188 24.6038 12.9502L28.5932 20.3592H38.2985C45.4878 9.12282 31.2792 -3.67772 20.5022 5.74822Z" fill="white"/>
<path d="M26.8846 22.0642L23.6518 16.0605L19.0804 25.7112C18.6915 26.5323 17.5476 26.6036 17.0599 25.837L13.7474 20.6318L12.8599 22.111C12.6509 22.4592 12.2746 22.6723 11.8684 22.6723H4.53516C4.76503 22.9129 3.53987 21.6902 19.6867 37.7533C20.1376 38.2021 20.8666 38.2022 21.3177 37.7533C37.216 21.9374 36.2398 22.9124 36.4692 22.6723H27.9027C27.4772 22.6724 27.0863 22.4388 26.8846 22.0642Z" fill="white"/>
</g>
</g>
</g>
<defs>
<clipPath id="clip0_1188_5089">
<rect width="39.4721" height="39.4721" fill="white" transform="translate(0.777344 0.544922)"/>
</clipPath>
<clipPath id="clip1_1188_5089">
<rect width="39.4721" height="39.4721" fill="white" transform="translate(0.777344 0.544922)"/>
</clipPath>
<clipPath id="clip2_1188_5089">
<rect width="39.4721" height="35.6167" fill="white" transform="translate(0.777344 2.47266)"/>
</clipPath>
</defs>
</svg>
