<svg width="152" height="26" viewBox="0 0 152 26" fill="none" xmlns="http://www.w3.org/2000/svg">
<path d="M1.11568 2.08852H3.99605C4.25096 2.08852 4.37841 2.21597 4.37841 2.47088V19.0649C4.37841 19.3198 4.25096 19.4473 3.99605 19.4473H1.11568C0.996723 19.4473 0.894762 19.4133 0.809795 19.3453C0.741822 19.2603 0.707835 19.1669 0.707835 19.0649V2.47088C0.707835 2.36892 0.741822 2.28395 0.809795 2.21597C0.894762 2.13101 0.996723 2.08852 1.11568 2.08852ZM12.8997 22.71C13.7493 22.71 14.3866 22.5061 14.8114 22.0982C15.2532 21.6224 15.4742 20.9682 15.4742 20.1355V18.9884C14.6925 19.4303 13.7493 19.6512 12.6448 19.6512C11.0984 19.6512 9.81536 19.1584 8.79576 18.1728C7.64021 17.0512 7.06243 15.5218 7.06243 13.5845C7.06243 11.7832 7.59772 10.3048 8.66831 9.14928C9.68791 8.07869 11.0049 7.5434 12.6193 7.5434C13.6219 7.5434 14.582 7.85778 15.4996 8.48653H15.5761V8.15516C15.5761 7.90026 15.7036 7.77281 15.9585 7.77281H18.4565C18.7114 7.77281 18.8388 7.90026 18.8388 8.15516V19.7022C18.8388 21.7584 18.2611 23.2793 17.1055 24.2649C16.1029 25.0976 14.684 25.5139 12.8487 25.5139C11.0304 25.5139 9.50948 25.0891 8.28595 24.2394C8.09903 24.0695 8.03955 23.8995 8.10752 23.7296L9.10164 21.7924C9.23758 21.5544 9.43301 21.5205 9.68791 21.6904C10.7075 22.3701 11.7781 22.71 12.8997 22.71ZM13.0526 16.8728C13.9363 16.8728 14.7434 16.6264 15.4742 16.1336V11.3159C14.6585 10.7212 13.8768 10.4238 13.1291 10.4238C12.3474 10.4238 11.7356 10.6702 11.2938 11.163C10.767 11.7917 10.5036 12.6159 10.5036 13.6355C10.5036 14.7401 10.7585 15.5728 11.2683 16.1336C11.7271 16.6264 12.3219 16.8728 13.0526 16.8728ZM25.4268 8.94535H25.5033C26.4209 8.01072 27.585 7.5434 28.9954 7.5434C30.4399 7.5434 31.5784 7.92575 32.4111 8.69045C33.3118 9.50614 33.7621 10.7297 33.7621 12.361V19.0649C33.7621 19.3198 33.6346 19.4473 33.3797 19.4473H30.7543C30.6523 19.4473 30.5588 19.4133 30.4739 19.3453C30.4059 19.2603 30.3719 19.1669 30.3719 19.0649V13.2277C30.3719 12.1741 30.1765 11.4349 29.7856 11.0101C29.4458 10.6192 28.936 10.4238 28.2562 10.4238C27.3386 10.4238 26.6504 10.7806 26.1915 11.4944C25.7497 12.1911 25.5288 13.0153 25.5288 13.9669V19.0649C25.5288 19.1669 25.4863 19.2603 25.4013 19.3453C25.3334 19.4133 25.2484 19.4473 25.1464 19.4473H22.5465C22.2916 19.4473 22.1641 19.3198 22.1641 19.0649V8.15516C22.1641 7.90026 22.2916 7.77281 22.5465 7.77281H25.0445C25.2994 7.77281 25.4268 7.90026 25.4268 8.15516V8.94535ZM36.8508 8.15516C36.8508 7.90026 36.9782 7.77281 37.2331 7.77281H39.8331C40.088 7.77281 40.2155 7.90026 40.2155 8.15516V19.0649C40.2155 19.1669 40.173 19.2603 40.088 19.3453C40.02 19.4133 39.9351 19.4473 39.8331 19.4473H37.2331C36.9782 19.4473 36.8508 19.3198 36.8508 19.0649V8.15516ZM38.5331 4.56106C37.9893 4.56106 37.5305 4.37413 37.1566 4.00028C36.7828 3.62643 36.5959 3.1676 36.5959 2.62382C36.5959 2.08003 36.7828 1.62121 37.1566 1.24735C37.5305 0.873497 37.9893 0.686569 38.5331 0.686569C39.0599 0.686569 39.5102 0.873497 39.8841 1.24735C40.2579 1.62121 40.4449 2.08003 40.4449 2.62382C40.4449 3.1676 40.2579 3.62643 39.8841 4.00028C39.5102 4.37413 39.0599 4.56106 38.5331 4.56106ZM47.2945 10.4238V14.8591C47.2945 15.4198 47.3795 15.8617 47.5494 16.1845C47.7534 16.5924 48.1442 16.7963 48.722 16.7963C49.2828 16.7963 49.835 16.5839 50.3788 16.159C50.6507 15.9551 50.8292 15.9721 50.9141 16.21L51.8063 18.0963C51.9082 18.2832 51.8573 18.4532 51.6533 18.6061C50.6167 19.3368 49.3422 19.7022 47.8298 19.7022C46.4703 19.7022 45.4762 19.3283 44.8475 18.5806C44.2357 17.8159 43.9298 16.7283 43.9298 15.3179V10.4238H42.6553C42.5534 10.4238 42.4599 10.3898 42.3749 10.3218C42.307 10.2369 42.273 10.1349 42.273 10.0159V8.15516C42.273 7.90026 42.4004 7.77281 42.6553 7.77281H43.9298V5.4787C43.9298 5.2238 44.0573 5.09635 44.3122 5.09635H46.9122C47.1671 5.09635 47.2945 5.2238 47.2945 5.4787V7.77281H50.5063C50.7612 7.77281 50.8886 7.90026 50.8886 8.15516V10.0159C50.8886 10.2878 50.7612 10.4238 50.5063 10.4238H47.2945ZM56.1093 12.412H60.876C60.859 11.8172 60.672 11.3074 60.3152 10.8826C59.8903 10.4238 59.3126 10.1944 58.5819 10.1944C57.7662 10.1944 57.1544 10.4238 56.7466 10.8826C56.4067 11.2734 56.1943 11.7832 56.1093 12.412ZM59.1681 17.0257C60.1367 17.0257 61.0799 16.7623 61.9975 16.2355C62.2864 16.0826 62.4818 16.1166 62.5838 16.3375L63.4759 17.9943C63.5609 18.1813 63.5014 18.3512 63.2975 18.5041C62.8047 18.844 62.159 19.1329 61.3603 19.3708C60.5616 19.5917 59.7459 19.7022 58.9132 19.7022C56.959 19.7022 55.4126 19.1329 54.274 17.9943C53.1355 16.8898 52.5662 15.3858 52.5662 13.4826C52.5662 11.7832 53.1355 10.3473 54.274 9.17477C55.3276 8.08719 56.7551 7.5434 58.5564 7.5434C60.5616 7.5434 62.0655 8.22314 63.0681 9.58261C63.8158 10.6022 64.1727 12.1571 64.1387 14.2473C64.1387 14.5022 64.0112 14.6296 63.7563 14.6296H56.1348C56.2538 15.2754 56.5087 15.7937 56.8995 16.1845C57.4263 16.7453 58.1825 17.0257 59.1681 17.0257ZM78.7752 19.7022C76.4471 19.7022 74.3739 19.1584 72.5556 18.0708C72.3517 17.9518 72.3007 17.7904 72.4026 17.5865L73.5752 15.114C73.6941 14.876 73.8556 14.8251 74.0595 14.961C75.7249 16.0146 77.2798 16.5414 78.7242 16.5414C79.5909 16.5414 80.2536 16.3715 80.7124 16.0316C81.2052 15.6747 81.4516 15.1819 81.4516 14.5532C81.4516 13.6865 80.7294 13.0068 79.285 12.514C79.0131 12.412 78.5543 12.2676 77.9085 12.0806C77.2628 11.8767 76.6765 11.6728 76.1497 11.4689C75.6229 11.265 75.1386 11.027 74.6968 10.7551C73.2523 9.80352 72.5301 8.48653 72.5301 6.80419C72.5301 5.27478 73.1334 4.05976 74.3399 3.15911C75.5124 2.29244 77.1098 1.85911 79.132 1.85911C81.2222 1.85911 83.0745 2.30094 84.6889 3.1846C84.9098 3.30355 84.9608 3.46499 84.8418 3.66891L83.6693 6.14145C83.5503 6.34537 83.3889 6.38785 83.185 6.2689C81.6895 5.45321 80.2706 5.04537 78.9281 5.04537C78.1294 5.04537 77.5007 5.18982 77.0418 5.4787C76.617 5.78459 76.4046 6.17543 76.4046 6.65125C76.4046 7.09308 76.5915 7.45843 76.9654 7.74732C77.3392 8.01922 77.8915 8.27412 78.6222 8.51202C78.8601 8.58 79.251 8.69045 79.7948 8.84339C80.3386 8.99634 80.7719 9.13228 81.0948 9.25124C81.4346 9.3532 81.8255 9.50614 82.2673 9.71006C82.7261 9.89698 83.1255 10.1094 83.4653 10.3473C84.7908 11.265 85.4536 12.5649 85.4536 14.2473C85.4536 15.9466 84.8163 17.2806 83.5418 18.2492C82.3183 19.2179 80.7294 19.7022 78.7752 19.7022ZM91.3699 10.3983V16.7198C91.7777 16.8728 92.2535 16.9492 92.7973 16.9492C93.7829 16.9492 94.5561 16.7028 95.1169 16.21C95.7287 15.6492 96.0345 14.7911 96.0345 13.6355C96.0345 12.6669 95.7626 11.8682 95.2189 11.2395C94.6411 10.6107 93.8424 10.2963 92.8228 10.2963C92.245 10.2963 91.7607 10.3303 91.3699 10.3983ZM88.3875 7.95124C89.4071 7.67935 90.7751 7.5434 92.4914 7.5434C94.7685 7.5434 96.5189 8.15516 97.7424 9.37869C98.83 10.4323 99.3737 11.8512 99.3737 13.6355C99.3737 15.3519 98.9149 16.7368 97.9973 17.7904C96.8587 19.0649 95.2443 19.7022 93.1542 19.7022C92.4574 19.7022 91.8627 19.6342 91.3699 19.4982V25.0296C91.3699 25.1485 91.3274 25.242 91.2424 25.31C91.1744 25.3949 91.0895 25.4374 90.9875 25.4374H88.3875C88.1326 25.4374 88.0052 25.3015 88.0052 25.0296V8.41006C88.0052 8.18915 88.1326 8.03621 88.3875 7.95124ZM110.203 13.2277C110.203 12.1741 110.007 11.4349 109.616 11.0101C109.277 10.6192 108.767 10.4238 108.087 10.4238C107.169 10.4238 106.481 10.7806 106.022 11.4944C105.58 12.1911 105.36 13.0153 105.36 13.9669V19.0649C105.36 19.1669 105.317 19.2603 105.232 19.3453C105.164 19.4133 105.079 19.4473 104.977 19.4473H102.377C102.122 19.4473 101.995 19.3198 101.995 19.0649V2.47088C101.995 2.21597 102.122 2.08852 102.377 2.08852H104.977C105.079 2.08852 105.164 2.13101 105.232 2.21597C105.317 2.28395 105.36 2.36892 105.36 2.47088V8.94535C106.277 8.01072 107.433 7.5434 108.826 7.5434C110.271 7.5434 111.409 7.92575 112.242 8.69045C113.142 9.50614 113.593 10.7297 113.593 12.361V19.0649C113.593 19.3198 113.465 19.4473 113.21 19.4473H110.585C110.483 19.4473 110.39 19.4133 110.305 19.3453C110.237 19.2603 110.203 19.1669 110.203 19.0649V13.2277ZM119.511 12.412H124.278C124.261 11.8172 124.074 11.3074 123.717 10.8826C123.292 10.4238 122.714 10.1944 121.983 10.1944C121.168 10.1944 120.556 10.4238 120.148 10.8826C119.808 11.2734 119.596 11.7832 119.511 12.412ZM122.57 17.0257C123.538 17.0257 124.481 16.7623 125.399 16.2355C125.688 16.0826 125.883 16.1166 125.985 16.3375L126.878 17.9943C126.962 18.1813 126.903 18.3512 126.699 18.5041C126.206 18.844 125.561 19.1329 124.762 19.3708C123.963 19.5917 123.147 19.7022 122.315 19.7022C120.361 19.7022 118.814 19.1329 117.676 17.9943C116.537 16.8898 115.968 15.3858 115.968 13.4826C115.968 11.7832 116.537 10.3473 117.676 9.17477C118.729 8.08719 120.157 7.5434 121.958 7.5434C123.963 7.5434 125.467 8.22314 126.47 9.58261C127.217 10.6022 127.574 12.1571 127.54 14.2473C127.54 14.5022 127.413 14.6296 127.158 14.6296H119.536C119.655 15.2754 119.91 15.7937 120.301 16.1845C120.828 16.7453 121.584 17.0257 122.57 17.0257ZM135.656 10.5002C134.178 10.5002 133.438 11.5708 133.438 13.712V19.0649C133.438 19.1669 133.396 19.2603 133.311 19.3453C133.243 19.4133 133.158 19.4473 133.056 19.4473H130.456C130.201 19.4473 130.074 19.3198 130.074 19.0649V8.15516C130.074 7.90026 130.201 7.77281 130.456 7.77281H132.954C133.209 7.77281 133.336 7.90026 133.336 8.15516V8.84339H133.413C134.144 7.97673 135.095 7.5434 136.268 7.5434C137.423 7.5434 138.375 7.86627 139.123 8.51202C139.31 8.68196 139.352 8.86039 139.25 9.04731L138.307 11.061C138.188 11.2819 137.993 11.3159 137.721 11.163C136.99 10.7212 136.302 10.5002 135.656 10.5002ZM143.557 12.412H148.324C148.307 11.8172 148.12 11.3074 147.763 10.8826C147.338 10.4238 146.76 10.1944 146.03 10.1944C145.214 10.1944 144.602 10.4238 144.194 10.8826C143.855 11.2734 143.642 11.7832 143.557 12.412ZM146.616 17.0257C147.585 17.0257 148.528 16.7623 149.445 16.2355C149.734 16.0826 149.93 16.1166 150.032 16.3375L150.924 17.9943C151.009 18.1813 150.949 18.3512 150.745 18.5041C150.253 18.844 149.607 19.1329 148.808 19.3708C148.009 19.5917 147.194 19.7022 146.361 19.7022C144.407 19.7022 142.86 19.1329 141.722 17.9943C140.583 16.8898 140.014 15.3858 140.014 13.4826C140.014 11.7832 140.583 10.3473 141.722 9.17477C142.775 8.08719 144.203 7.5434 146.004 7.5434C148.009 7.5434 149.513 8.22314 150.516 9.58261C151.264 10.6022 151.621 12.1571 151.587 14.2473C151.587 14.5022 151.459 14.6296 151.204 14.6296H143.583C143.702 15.2754 143.957 15.7937 144.347 16.1845C144.874 16.7453 145.63 17.0257 146.616 17.0257Z" fill="#239846"/>
</svg>
