<svg width="214" height="33" viewBox="0 0 214 33" fill="none" xmlns="http://www.w3.org/2000/svg">
<path d="M169.925 9.1459L169.925 0L201.984 3.31994e-09L201.984 9.1459L169.925 9.1459ZM179.082 20.5791L179.082 32.0112L169.923 32.0112L169.923 11.4332L201.982 11.4332L201.982 32.0112L192.822 32.0112L192.822 20.5791L179.082 20.5791Z" fill="#ED2024"/>
<path d="M204.121 9.1459L204.121 0L213.739 9.95984e-10L213.739 9.1459L204.121 9.1459ZM213.739 11.4332L213.739 32.0112L204.121 32.0112L204.121 11.4332L213.739 11.4332Z" fill="#ED2024"/>
<path d="M33.1297 25.1072L33.1297 32.0112L3.32457e-09 32.0112L0 0L8.28297 8.5771e-10L8.28297 25.1072L33.1297 25.1072Z" fill="black"/>
<path d="M67.4207 25.198L47.9484 25.198L44.4591 32.0112L35.2666 32.0112L52.0375 1.73665e-09L63.3315 2.90614e-09L80.152 32.0101L70.9054 32.0101L67.4207 25.198ZM64.3074 19.0705L57.7093 6.08434L51.0684 19.0705L64.3074 19.0705Z" fill="black"/>
<path d="M112.746 22.5009L118.645 32.0112L108.95 32.0112L103.782 23.4612L90.52 23.4612L90.52 32.0112L82.29 32.0112L82.29 0L107.438 2.60405e-09C114.709 3.35704e-09 119.694 4.61781 119.694 11.7511C119.698 16.9682 117.045 20.8095 112.746 22.5009ZM90.52 16.5572L105.154 16.5572C107.624 16.5572 111.469 16.5572 111.469 11.7555C111.469 6.95385 107.627 6.90844 105.154 6.90844L90.52 6.90844L90.52 16.5572Z" fill="black"/>
<path d="M147.206 14.2245L166.717 32.0112L155.259 32.0112L141.084 18.7061L131.188 25.8848L131.188 32.0112L122.9 32.0112L122.9 0L131.184 8.57808e-10L131.184 16.6026L154.154 3.23635e-09L166.717 4.53726e-09L147.206 14.2245Z" fill="black"/>
</svg>
