<svg width="41" height="40" viewBox="0 0 41 40" fill="none" xmlns="http://www.w3.org/2000/svg">
<g clip-path="url(#clip0_1188_5100)">
<g clip-path="url(#clip1_1188_5100)">
<path d="M8.6667 39.7815H32.4773C33.8942 39.7815 35.0737 38.6978 35.0737 37.3661V8.48571C35.0737 7.15366 33.8942 6.05859 32.4773 6.05859H28.5522V8.26381C28.5579 8.6466 28.2559 8.96336 27.8735 8.97609H13.224C12.8338 8.96671 12.5187 8.65398 12.506 8.26381V6.05859H8.6667C7.24985 6.05859 6.07031 7.15366 6.07031 8.48571V37.3661C6.07031 38.6978 7.24985 39.7815 8.6667 39.7815ZM13.9647 17.6428C13.9647 17.2637 14.2721 16.9563 14.6512 16.9563H18.1694V13.4382C18.1694 13.0591 18.4767 12.7517 18.8558 12.7517H22.2882C22.6673 12.7517 22.9747 13.0591 22.9747 13.4382V16.9563H26.4928C26.8719 16.9563 27.1793 17.2637 27.1793 17.6428V21.0751C27.1793 21.4542 26.8719 21.7616 26.4928 21.7616H22.9747V25.2798C22.9747 25.6589 22.6673 25.9662 22.2882 25.9662H18.8558C18.4767 25.9662 18.1694 25.6589 18.1694 25.2798V21.7616H14.6512C14.2721 21.7616 13.9647 21.4542 13.9647 21.0751V17.6428ZM14.2443 29.4844H26.8997C27.2792 29.4844 27.5862 29.7918 27.5862 30.1709C27.5862 30.55 27.2792 30.8573 26.8997 30.8573H14.2443C13.8648 30.8573 13.5578 30.55 13.5578 30.1709C13.5578 29.7918 13.8648 29.4844 14.2443 29.4844ZM11.67 32.9168H29.474C29.8534 32.9168 30.1605 33.2241 30.1605 33.6032C30.1605 33.9823 29.8534 34.2897 29.474 34.2897H11.67C11.2906 34.2897 10.9835 33.9823 10.9835 33.6032C10.9835 33.2241 11.2906 32.9168 11.67 32.9168Z" fill="white"/>
<path d="M27.1754 2.96965H23.9629C23.6398 2.96931 23.3602 2.74373 23.2922 2.42764C23.0267 1.20084 21.8616 0.309572 20.5215 0.309572H20.5131C19.2089 0.308231 18.0696 1.19079 17.7451 2.45379C17.667 2.75713 17.3935 2.96931 17.0801 2.96965H13.875V7.60332H27.1754V2.96965Z" fill="white"/>
<path d="M19.5406 21.0755V24.5937H21.6V21.0755C21.6 20.6964 21.9074 20.389 22.2865 20.389H25.8046V18.3296H22.2865C21.9074 18.3296 21.6 18.0223 21.6 17.6432V14.125H19.5406V17.6432C19.5406 18.0223 19.2332 18.3296 18.8541 18.3296H15.3359V20.389H18.8541C19.2332 20.389 19.5406 20.6964 19.5406 21.0755Z" fill="white"/>
</g>
</g>
<defs>
<clipPath id="clip0_1188_5100">
<rect width="39.4721" height="39.4721" fill="white" transform="translate(0.835938 0.30957)"/>
</clipPath>
<clipPath id="clip1_1188_5100">
<rect width="39.4721" height="39.4721" fill="white" transform="translate(0.835938 0.30957)"/>
</clipPath>
</defs>
</svg>
