<svg width="92" height="92" viewBox="0 0 92 92" fill="none" xmlns="http://www.w3.org/2000/svg">
<circle cx="46" cy="46" r="46" fill="#2555D2"/>
<path d="M63 51.125C63 49.9562 62.0438 49 60.875 49H56.625V53.25H60.875C62.0438 53.25 63 52.2937 63 51.125ZM60.875 57.5H56.625V61.75H60.875C62.0438 61.75 63 60.7937 63 59.625C63 58.4563 62.0438 57.5 60.875 57.5ZM43.875 51.125H39.625V59.625H43.875C43.875 61.9625 45.7875 63.875 48.125 63.875H54.5V46.875H48.125C45.7875 46.875 43.875 48.7875 43.875 51.125Z" fill="white"/>
<path d="M33.25 51.125C33.25 48.7875 35.1625 46.875 37.5 46.875H40.6875C44.7887 46.875 48.125 43.5387 48.125 39.4375C48.125 35.3363 44.7887 32 40.6875 32H33.25C32.0812 32 31.125 32.9562 31.125 34.125C31.125 35.2938 32.0812 36.25 33.25 36.25H40.6875C42.4513 36.25 43.875 37.6737 43.875 39.4375C43.875 41.2013 42.4513 42.625 40.6875 42.625H37.5C32.8038 42.625 29 46.4288 29 51.125C29 55.8213 32.8038 59.625 37.5 59.625H41.75V55.375H37.5C35.1625 55.375 33.25 53.4625 33.25 51.125Z" fill="white"/>
</svg>
