<svg width="92" height="92" viewBox="0 0 92 92" fill="none" xmlns="http://www.w3.org/2000/svg">
<circle cx="46" cy="46" r="46" fill="#0ACF83"/>
<path d="M29 63V55.093L37.3721 46.7209L30.1628 39.4651C29.7907 39.093 29.5197 38.6744 29.3498 38.2093C29.1786 37.7442 29.093 37.2791 29.093 36.814C29.093 36.3488 29.1786 35.8918 29.3498 35.4428C29.5197 34.9926 29.7907 34.5814 30.1628 34.2093L33.6977 30.6744C34.0698 30.3023 34.4884 30.0307 34.9535 29.8595C35.4186 29.6896 35.8837 29.6047 36.3488 29.6047C36.814 29.6047 37.2716 29.6896 37.7219 29.8595C38.1709 30.0307 38.5814 30.3023 38.9535 30.6744L46.2093 37.9302L54.5349 29.5581C54.7209 29.3721 54.9225 29.2326 55.1395 29.1395C55.3566 29.0465 55.5891 29 55.8372 29C56.0853 29 56.3253 29.0465 56.5572 29.1395C56.7904 29.2326 57 29.3721 57.186 29.5581L62.4419 34.814C62.6279 35 62.7674 35.2016 62.8605 35.4186C62.9535 35.6357 63 35.8682 63 36.1163C63 36.3643 62.9535 36.605 62.8605 36.8381C62.7674 37.0701 62.6279 37.2791 62.4419 37.4651L54.1163 45.7907L61.3256 53.0465C61.6977 53.4186 61.9687 53.8372 62.1386 54.3023C62.3098 54.7674 62.3954 55.2326 62.3954 55.6977C62.3954 56.1628 62.3098 56.6198 62.1386 57.0688C61.9687 57.5191 61.6977 57.9302 61.3256 58.3023L57.7907 61.8372C57.4186 62.2093 57.0074 62.4803 56.5572 62.6502C56.1082 62.8214 55.6512 62.907 55.186 62.907C54.7209 62.907 54.2558 62.8214 53.7907 62.6502C53.3256 62.4803 52.907 62.2093 52.5349 61.8372L45.2791 54.5814L36.907 63H29ZM40.0233 44.0698L43.5581 40.5349L41.3256 38.3023L39.093 40.4884L36.4884 37.8837L38.6744 35.6512L36.3023 33.3256L32.814 36.8605L40.0233 44.0698ZM55.1395 59.186L58.6744 55.6512L56.3023 53.3256L54.1163 55.5116L51.4651 52.907L53.6977 50.6744L51.4186 48.4419L47.8837 51.9767L55.1395 59.186ZM32.7209 59.2791H35.3256L53.2326 41.4186L50.5814 38.7674L32.7209 56.6744V59.2791ZM55.8372 38.7674L58.4884 36.1163L55.8372 33.5116L53.2326 36.1163L55.8372 38.7674Z" fill="white"/>
</svg>
