<svg width="92" height="92" viewBox="0 0 92 92" fill="none" xmlns="http://www.w3.org/2000/svg">
<circle cx="46" cy="46" r="46" fill="#5E24D3"/>
<path d="M61.6071 54.2857V46.9643C61.6064 46.1878 61.2976 45.4434 60.7485 44.8943C60.1995 44.3453 59.455 44.0365 58.6786 44.0357H46.9643V36.7143H51.3571C52.1336 36.7135 52.8781 36.4047 53.4271 35.8557C53.9761 35.3066 54.2849 34.5622 54.2857 33.7857V27.9286C54.2849 27.1521 53.9761 26.4077 53.4271 25.8586C52.8781 25.3096 52.1336 25.0008 51.3571 25H39.6429C38.8664 25.0008 38.1219 25.3096 37.5729 25.8586C37.0239 26.4077 36.7151 27.1521 36.7143 27.9286V33.7857C36.7151 34.5622 37.0239 35.3066 37.5729 35.8557C38.1219 36.4047 38.8664 36.7135 39.6429 36.7143H44.0357V44.0357H32.3214C31.545 44.0365 30.8005 44.3453 30.2515 44.8943C29.7024 45.4434 29.3936 46.1878 29.3929 46.9643V54.2857H25V66H36.7143V54.2857H32.3214V46.9643H44.0357V54.2857H39.6429V66H51.3571V54.2857H46.9643V46.9643H58.6786V54.2857H54.2857V66H66V54.2857H61.6071ZM39.6429 27.9286H51.3571V33.7857H39.6429V27.9286ZM33.7857 63.0714H27.9286V57.2143H33.7857V63.0714ZM48.4286 63.0714H42.5714V57.2143H48.4286V63.0714ZM63.0714 63.0714H57.2143V57.2143H63.0714V63.0714Z" fill="white"/>
</svg>
